ply
format ascii 1.0
comment Created by Blender 2.73 (sub 0) - www.blender.org, source file: 'Pull.blend'
element vertex 10
property float x
property float y
property float z
property float nx
property float ny
property float nz
element face 4
property list uchar uint vertex_indices
end_header
-6.520502 62.909058 -0.010070 -0.303964 -0.425123 0.852535
-99.442726 -67.050674 -0.010070 0.000000 0.000000 1.000000
30.517004 -159.972900 -0.010070 0.000000 0.000000 1.000000
123.439232 -30.013168 -0.010070 -0.303964 -0.425123 0.852535
127.476189 -24.367119 13.623665 -0.551530 -0.771355 0.317484
-2.483541 68.555107 13.623665 -0.551530 -0.771355 0.317484
129.927200 -20.939171 37.420727 -0.577899 -0.808252 0.112766
-0.032526 71.983055 37.420727 -0.577899 -0.808252 0.112766
134.491028 -14.556583 191.841629 -0.580859 -0.812403 0.050722
4.531290 78.365639 191.841629 -0.580859 -0.812403 0.050722
4 0 1 2 3
4 0 3 4 5
4 5 4 6 7
4 7 6 8 9
